<svg width="129" height="32" viewBox="0 0 129 32" fill="none" xmlns="http://www.w3.org/2000/svg">
<path d="M121.595 6.43574C120.731 6.43574 120.014 6.65092 119.445 7.08128C118.899 7.51164 118.456 8.04394 118.115 8.67815C117.796 9.28972 117.569 9.94659 117.432 10.6488C117.296 11.3283 117.227 11.9285 117.227 12.4495C117.227 12.7666 117.273 12.9818 117.364 13.095C117.432 13.0271 117.58 12.8345 117.807 12.5174C118.035 12.2003 118.365 11.8719 118.797 11.5321C119.229 11.1697 119.764 10.8526 120.401 10.5808C121.061 10.309 121.857 10.1731 122.79 10.1731C123.563 10.1731 124.314 10.2863 125.042 10.5129C125.793 10.7167 126.452 11.0791 127.021 11.6001C127.612 12.0984 128.09 12.7666 128.454 13.6047C128.818 14.4201 129 15.4394 129 16.6625C129 17.9536 128.784 19.1654 128.352 20.2979C127.92 21.4305 127.271 22.4271 126.407 23.2878C125.565 24.1259 124.507 24.7941 123.233 25.2924C121.959 25.7681 120.492 26.0059 118.831 26.0059C117.148 26.0059 115.783 25.7341 114.736 25.1905C113.69 24.6469 112.871 23.922 112.279 23.016C111.688 22.0873 111.278 21.0114 111.051 19.7883C110.846 18.5425 110.744 17.2288 110.744 15.8471C110.744 13.8991 110.937 12.0418 111.324 10.275C111.711 8.48562 112.336 6.92273 113.201 5.58634C114.088 4.2273 115.248 3.1514 116.681 2.35862C118.115 1.56585 119.878 1.16946 121.971 1.16946C124.382 1.16946 126.134 1.55452 127.226 2.32465C128.318 3.09477 128.864 4.06875 128.864 5.24658C128.864 6.31116 128.5 7.10393 127.772 7.6249C127.066 8.14586 126.043 8.40635 124.701 8.40635C124.519 8.40635 124.371 8.38369 124.257 8.33839C124.166 8.29309 124.12 8.17984 124.12 7.99863C124.12 7.56827 123.95 7.20586 123.609 6.9114C123.267 6.59429 122.596 6.43574 121.595 6.43574ZM120.367 14.2502C119.775 14.2502 119.275 14.3861 118.865 14.6579C118.456 14.9297 118.126 15.2695 117.876 15.6772C117.648 16.0623 117.478 16.4926 117.364 16.9683C117.273 17.4213 117.227 17.829 117.227 18.1914C117.227 18.9615 117.398 19.5731 117.739 20.0261C118.103 20.4791 118.615 20.7056 119.275 20.7056C119.912 20.7056 120.446 20.5584 120.879 20.264C121.311 19.9695 121.652 19.6071 121.902 19.1767C122.175 18.7237 122.369 18.2594 122.482 17.7837C122.596 17.308 122.653 16.8777 122.653 16.4926C122.653 15.8358 122.482 15.3035 122.141 14.8958C121.8 14.4654 121.208 14.2502 120.367 14.2502Z" fill="url(#paint0_linear_816_501)"/>
<path d="M10.0667 1.20346C12.2052 1.20346 13.7863 1.6678 14.81 2.59648C15.8565 3.52515 16.3797 4.73696 16.3797 6.23191C16.3797 7.50034 16.0271 8.47432 15.3219 9.15384C14.6166 9.81071 13.6043 10.1391 12.2848 10.1391C11.8753 10.1391 11.6137 10.1052 11.4999 10.0372C11.3862 9.94661 11.3293 9.77673 11.3293 9.52758C11.3293 9.30107 11.3066 9.00661 11.2611 8.6442C11.2383 8.28179 11.1587 7.9307 11.0222 7.59095C10.8857 7.25118 10.6696 6.96805 10.3738 6.74154C10.0781 6.49239 9.66859 6.36781 9.14534 6.36781C8.41736 6.36781 7.76899 6.59432 7.20025 7.04733C6.63151 7.47769 6.34714 8.04396 6.34714 8.74613C6.34714 9.3577 6.57464 9.85601 7.02963 10.2411C7.50737 10.6261 8.09886 10.9885 8.8041 11.3283C9.50934 11.6454 10.2714 11.9738 11.0904 12.3136C11.9322 12.6534 12.7057 13.1064 13.4109 13.6726C14.1161 14.2163 14.6962 14.9071 15.1512 15.7452C15.629 16.5606 15.8679 17.6025 15.8679 18.871C15.8679 19.8676 15.6972 20.8076 15.356 21.691C15.0375 22.5517 14.5484 23.3105 13.8886 23.9674C13.2516 24.6016 12.4327 25.0999 11.4317 25.4623C10.4534 25.8247 9.30459 26.0059 7.98511 26.0059C6.84763 26.0059 5.78978 25.8813 4.81154 25.6322C3.85606 25.383 3.01432 25.0772 2.28634 24.7148C1.5811 24.3298 1.02373 23.9221 0.61424 23.4917C0.204747 23.0387 0 22.631 0 22.2686C0 20.7736 0.0796236 19.6977 0.238871 19.0408C0.420868 18.384 0.739362 18.0555 1.19435 18.0555C1.51285 18.0555 1.84272 18.1915 2.18396 18.4633C2.54796 18.7351 2.95745 19.0408 3.41244 19.3806C3.86743 19.7204 4.39067 20.0262 4.98216 20.298C5.5964 20.5698 6.30164 20.7057 7.09788 20.7057C7.41637 20.7057 7.72349 20.683 8.01924 20.6377C8.33773 20.5698 8.61073 20.4678 8.83822 20.3319C9.08847 20.196 9.28184 20.0148 9.41834 19.7883C9.57759 19.5618 9.65721 19.29 9.65721 18.9729C9.65721 18.4066 9.44109 17.9536 9.00885 17.6139C8.5766 17.2741 8.03061 16.9683 7.37087 16.6965C6.71113 16.402 5.99452 16.1076 5.22104 15.8131C4.4703 15.496 3.76506 15.077 3.10532 14.556C2.44558 14.0124 1.89959 13.3216 1.46735 12.4835C1.03511 11.6454 0.818986 10.5695 0.818986 9.25577C0.818986 7.78348 1.09198 6.53769 1.63797 5.51841C2.20671 4.49913 2.92332 3.67238 3.78781 3.03816C4.67504 2.38129 5.66465 1.91696 6.75663 1.64515C7.87137 1.35069 8.97472 1.20346 10.0667 1.20346Z" fill="black"/>
<path d="M22.3179 25.6662C21.6127 25.6662 21.0325 25.5982 20.5776 25.4623C20.1453 25.3038 19.7927 25.0886 19.5197 24.8168C19.2695 24.545 19.0875 24.2165 18.9737 23.8315C18.8827 23.4237 18.8372 22.9594 18.8372 22.4384C18.8372 22.0987 18.8486 21.623 18.8713 21.0115C18.9168 20.3772 18.9851 19.5165 19.0761 18.4293C19.1671 17.3194 19.2695 15.9264 19.3832 14.2502C19.5197 12.5514 19.6789 10.4563 19.8609 7.96468C19.8837 7.46637 19.9406 7.17191 20.0316 7.0813C20.0998 7.01335 20.2818 6.97938 20.5776 6.97938H21.9084C22.6136 6.97938 23.1824 7.04733 23.6146 7.18323C24.0696 7.31914 24.4222 7.52299 24.6725 7.7948C24.9455 8.06661 25.1275 8.39504 25.2185 8.7801C25.3322 9.16517 25.3891 9.59553 25.3891 10.0712C25.3891 10.411 25.3663 10.9206 25.3209 11.6001C25.2754 12.2796 25.2071 13.2083 25.1161 14.3861C25.0479 15.5413 24.9455 16.991 24.809 18.7351C24.6725 20.4565 24.5019 22.5404 24.2971 24.9866C24.2744 25.2585 24.2175 25.4397 24.1265 25.5303C24.0355 25.6209 23.8421 25.6662 23.5464 25.6662H22.3179ZM19.8951 2.97021C19.8951 2.06419 20.2249 1.35069 20.8847 0.829726C21.5444 0.308761 22.4316 0.0482788 23.5464 0.0482788C24.5246 0.0482788 25.2298 0.252134 25.6621 0.659845C26.1171 1.04491 26.3446 1.56587 26.3446 2.22274C26.3446 3.06081 26.0261 3.76298 25.3891 4.32925C24.7749 4.87287 23.8649 5.14467 22.6591 5.14467C20.8164 5.14467 19.8951 4.41985 19.8951 2.97021Z" fill="black"/>
<path d="M34.3041 19.5505C34.2358 20.5924 34.1562 21.589 34.0652 22.5404C33.9742 23.469 33.906 24.2845 33.8605 24.9866C33.8377 25.2585 33.7809 25.4397 33.6899 25.5303C33.5989 25.6209 33.4055 25.6662 33.1097 25.6662H31.8813C31.176 25.6662 30.5959 25.5982 30.1409 25.4623C29.7087 25.3038 29.3561 25.0886 29.0831 24.8168C28.8328 24.545 28.6508 24.2165 28.5371 23.8315C28.4461 23.4237 28.4006 22.9594 28.4006 22.4384C28.4006 22.0987 28.412 21.623 28.4347 21.0115C28.4802 20.3772 28.5484 19.5165 28.6394 18.4293C28.7304 17.3194 28.8328 15.9264 28.9466 14.2502C29.0831 12.5514 29.2423 10.4563 29.4243 7.96468C29.4471 7.46637 29.5039 7.17191 29.5949 7.0813C29.6632 7.01335 29.8452 6.97938 30.1409 6.97938H31.4718C32.1543 6.97938 32.7116 7.05865 33.1439 7.21721C33.5761 7.37576 33.9287 7.57962 34.2017 7.82878C34.4747 8.07793 34.6681 8.37239 34.7818 8.71215C34.8956 9.05191 34.9638 9.403 34.9866 9.76541C35.6463 8.54227 36.3971 7.71552 37.2388 7.28516C38.0805 6.8548 39.0701 6.63962 40.2076 6.63962C40.8219 6.63962 41.4134 6.69625 41.9821 6.8095C42.5508 6.92275 43.0627 7.11528 43.5177 7.38709C43.9727 7.6589 44.3594 8.02131 44.6779 8.47432C44.9964 8.90468 45.2239 9.45962 45.3604 10.1391C46.0656 8.8254 46.8391 7.91938 47.6809 7.42107C48.5226 6.9001 49.5805 6.63962 50.8544 6.63962C51.5597 6.63962 52.2308 6.7189 52.8678 6.87745C53.5275 7.01335 54.0963 7.26251 54.574 7.62492C55.0517 7.98733 55.4271 8.48564 55.7001 9.11986C55.9959 9.73143 56.1437 10.5016 56.1437 11.4302C56.1437 12.1324 56.1096 12.9931 56.0414 14.0124C55.9731 15.0317 55.8935 16.1416 55.8025 17.342C55.7115 18.5199 55.6091 19.743 55.4954 21.0115C55.3816 22.2572 55.2906 23.4577 55.2224 24.6129C55.1996 24.8621 55.1769 25.0546 55.1541 25.1905C55.1314 25.3264 55.0859 25.4283 55.0176 25.4963C54.9721 25.5642 54.8925 25.6095 54.7787 25.6322C54.665 25.6548 54.5058 25.6662 54.301 25.6662H53.209C52.481 25.6662 51.8895 25.5982 51.4346 25.4623C50.9796 25.3264 50.6269 25.1339 50.3767 24.8847C50.1265 24.6356 49.9445 24.3298 49.8307 23.9674C49.7397 23.5823 49.6942 23.1519 49.6942 22.6763C49.6942 22.3818 49.7056 21.9628 49.7283 21.4192C49.7738 20.8756 49.8193 20.2866 49.8648 19.6524C49.9331 19.0182 49.99 18.3613 50.0355 17.6818C50.1037 17.0023 50.1606 16.3794 50.2061 15.8131C50.2743 15.2242 50.3198 14.7146 50.3426 14.2842C50.3881 13.8539 50.4108 13.5707 50.4108 13.4348C50.4108 12.8459 50.2857 12.3249 50.0355 11.8719C49.808 11.4189 49.353 11.1924 48.6705 11.1924C48.079 11.1924 47.5671 11.3849 47.1349 11.77C46.7026 12.1551 46.3386 12.6873 46.0429 13.3669C45.7472 14.0464 45.5083 14.8505 45.3263 15.7792C45.1443 16.7078 45.0192 17.7158 44.9509 18.803C44.9054 19.5052 44.8485 20.3093 44.7803 21.2153C44.712 22.1213 44.6324 23.2539 44.5414 24.6129C44.5187 24.8621 44.4959 25.0546 44.4732 25.1905C44.4504 25.3264 44.4049 25.4283 44.3367 25.4963C44.2912 25.5642 44.2116 25.6095 44.0978 25.6322C43.9841 25.6548 43.8248 25.6662 43.6201 25.6662H42.5281C41.8001 25.6662 41.2086 25.5982 40.7536 25.4623C40.2986 25.3264 39.946 25.1339 39.6958 24.8847C39.4455 24.6356 39.2635 24.3298 39.1498 23.9674C39.0588 23.5823 39.0133 23.1519 39.0133 22.6763C39.0133 22.2233 39.0474 21.5664 39.1156 20.7057C39.2066 19.8223 39.2863 18.9163 39.3545 17.9876C39.4455 17.0363 39.5251 16.1416 39.5934 15.3035C39.6844 14.4428 39.7299 13.8199 39.7299 13.4348C39.7299 12.8459 39.6048 12.3249 39.3545 11.8719C39.127 11.4189 38.672 11.1924 37.9895 11.1924C37.3753 11.1924 36.8521 11.4189 36.4198 11.8719C35.9876 12.3249 35.6236 12.9365 35.3278 13.7066C35.0548 14.4541 34.8273 15.3375 34.6453 16.3567C34.4861 17.376 34.3723 18.4406 34.3041 19.5505Z" fill="black"/>
<path d="M70.9996 6.63962C73.138 6.63962 74.7419 7.29649 75.8111 8.61022C76.9031 9.92396 77.4491 11.9965 77.4491 14.8278C77.4491 16.5946 77.2443 18.1688 76.8348 19.5505C76.4254 20.9322 75.8566 22.11 75.1286 23.084C74.4006 24.0353 73.5475 24.7601 72.5693 25.2585C71.5911 25.7568 70.5332 26.0059 69.3957 26.0059C68.19 26.0059 67.2459 25.7454 66.5634 25.2245C65.8809 24.7035 65.3463 23.9674 64.9596 23.016C64.8913 23.8315 64.8344 24.4544 64.7889 24.8847C64.7434 25.3151 64.7093 25.6548 64.6866 25.904C64.6638 26.1758 64.6411 26.4136 64.6183 26.6175C64.6183 26.8213 64.5956 27.0932 64.5501 27.4329C64.5273 27.7727 64.4932 28.237 64.4477 28.8259C64.4022 29.4148 64.3339 30.2303 64.2429 31.2722C64.2202 31.544 64.1633 31.7252 64.0723 31.8158C63.9813 31.9064 63.7879 31.9517 63.4922 31.9517H62.2637C61.5585 31.9517 60.9784 31.8724 60.5234 31.7139C60.0911 31.578 59.7385 31.3741 59.4655 31.1023C59.2153 30.8305 59.0333 30.4908 58.9195 30.083C58.8285 29.698 58.783 29.245 58.783 28.724C58.783 28.4975 58.8172 27.8859 58.8854 26.8893C58.9537 25.8927 59.0333 24.7035 59.1243 23.3218C59.238 21.9175 59.3518 20.4112 59.4655 18.803C59.602 17.1948 59.7271 15.6659 59.8409 14.2163C59.9546 12.744 60.0456 11.4416 60.1139 10.309C60.2049 9.17649 60.2731 8.39504 60.3186 7.96468C60.3414 7.46637 60.3983 7.17191 60.4893 7.0813C60.5575 7.01335 60.7395 6.97938 61.0352 6.97938H62.3661C63.5946 6.97938 64.4818 7.23986 65.0278 7.76083C65.5965 8.25914 65.8809 8.85938 65.8809 9.56155C66.4041 8.51962 67.0753 7.77215 67.8942 7.31914C68.736 6.86612 69.7711 6.63962 70.9996 6.63962ZM68.5085 11.1584C67.3483 11.1584 66.4952 11.6567 65.9492 12.6534C65.4032 13.65 65.1302 15.009 65.1302 16.7305C65.1302 17.3194 65.1643 17.897 65.2325 18.4633C65.3235 19.0295 65.4714 19.5392 65.6762 19.9922C65.8809 20.4452 66.1539 20.8076 66.4952 21.0794C66.8591 21.3512 67.3141 21.4871 67.8601 21.4871C68.8384 21.4871 69.6573 21.0115 70.3171 20.0601C70.9768 19.1088 71.3067 17.6139 71.3067 15.5753C71.3067 15.009 71.2612 14.4654 71.1702 13.9445C71.1019 13.4008 70.9654 12.9252 70.7607 12.5175C70.556 12.1097 70.2716 11.7813 69.9076 11.5322C69.5436 11.283 69.0772 11.1584 68.5085 11.1584Z" fill="black"/>
<path d="M84.0455 25.9719C82.635 25.9719 81.6227 25.5982 81.0084 24.8507C80.3942 24.1033 80.0871 22.8688 80.0871 21.1474C80.0871 20.8756 80.0984 20.5358 80.1212 20.1281C80.1667 19.7204 80.2122 19.1994 80.2577 18.5652C80.3259 17.9083 80.4056 17.1042 80.4966 16.1529C80.5876 15.2016 80.6786 14.0464 80.7696 12.6873C80.8833 11.3283 80.997 9.73143 81.1108 7.89673C81.2473 6.06203 81.3838 3.93286 81.5203 1.50925C81.543 1.01093 81.5999 0.716472 81.6909 0.625869C81.7592 0.557918 81.9412 0.523942 82.2369 0.523942H83.5678C84.2502 0.523942 84.819 0.603219 85.274 0.761773C85.729 0.920328 86.093 1.13551 86.366 1.40732C86.639 1.67912 86.8323 1.99623 86.9461 2.35864C87.0598 2.6984 87.1167 3.06081 87.1167 3.44587C87.1167 3.89889 87.0826 4.55576 87.0143 5.41648C86.9688 6.25456 86.9006 7.20588 86.8096 8.27046C86.7186 9.33504 86.6276 10.4449 86.5366 11.6001C86.4456 12.7553 86.3546 13.8652 86.2636 14.9298C86.1726 15.9717 86.093 16.9117 86.0247 17.7498C85.9792 18.5878 85.9565 19.2221 85.9565 19.6524C85.9565 20.2413 86.0588 20.6604 86.2636 20.9095C86.4911 21.1587 86.73 21.3399 86.9802 21.4531C87.2304 21.5437 87.4579 21.6117 87.6627 21.657C87.8902 21.6796 88.0039 21.7476 88.0039 21.8609C88.0039 22.3592 87.947 22.8575 87.8333 23.3558C87.7196 23.8315 87.5148 24.2732 87.2191 24.6809C86.9233 25.0659 86.5138 25.383 85.9906 25.6322C85.4901 25.8587 84.8417 25.9719 84.0455 25.9719Z" fill="black"/>
<path d="M98.2671 26.0059C97.2661 26.0059 96.2652 25.8813 95.2642 25.6322C94.2859 25.383 93.3987 24.9527 92.6025 24.3411C91.829 23.7295 91.192 22.9141 90.6915 21.8948C90.191 20.8756 89.9408 19.5958 89.9408 18.0555C89.9408 17.4893 89.9863 16.8098 90.0773 16.017C90.1683 15.2242 90.3389 14.4088 90.5891 13.5707C90.8621 12.7326 91.2261 11.9059 91.6811 11.0905C92.1588 10.2524 92.7731 9.50492 93.5238 8.84805C94.2746 8.19119 95.1845 7.6589 96.2538 7.25118C97.323 6.84347 98.597 6.63962 100.076 6.63962C101.259 6.63962 102.26 6.77552 103.079 7.04733C103.898 7.31914 104.557 7.69287 105.058 8.16854C105.558 8.62155 105.922 9.15384 106.15 9.76541C106.377 10.377 106.491 11.0338 106.491 11.736C106.491 12.7779 106.275 13.6613 105.843 14.3861C105.433 15.111 104.887 15.7225 104.205 16.2208C103.545 16.6965 102.806 17.0702 101.987 17.342C101.168 17.6139 100.36 17.829 99.5638 17.9876C98.7676 18.1235 98.0282 18.2141 97.3457 18.2594C96.686 18.2821 96.1741 18.2934 95.8101 18.2934C95.8101 18.7237 95.867 19.1541 95.9808 19.5845C96.1173 19.9922 96.3107 20.3546 96.5609 20.6717C96.8111 20.9888 97.141 21.2493 97.5505 21.4531C97.96 21.657 98.4605 21.7589 99.052 21.7589C99.6435 21.7589 100.098 21.6683 100.417 21.4871C100.758 21.2833 101.031 21.0681 101.236 20.8416C101.441 20.5924 101.611 20.3772 101.748 20.196C101.907 19.9922 102.112 19.8902 102.362 19.8902C102.476 19.8902 102.669 19.9242 102.942 19.9922C103.238 20.0375 103.534 20.1507 103.829 20.3319C104.125 20.5131 104.387 20.7623 104.614 21.0794C104.842 21.3965 104.955 21.8042 104.955 22.3025C104.955 22.9594 104.751 23.5257 104.341 24.0013C103.932 24.477 103.397 24.8621 102.737 25.1565C102.1 25.451 101.384 25.6662 100.588 25.8021C99.7913 25.938 99.0179 26.0059 98.2671 26.0059ZM98.9155 11.1584C98.415 11.1584 97.9827 11.3057 97.6188 11.6001C97.2775 11.8719 96.9818 12.223 96.7315 12.6534C96.504 13.0837 96.322 13.5594 96.1855 14.0804C96.0718 14.6013 95.9808 15.0996 95.9125 15.5753C97.323 15.5526 98.4605 15.3148 99.325 14.8618C100.212 14.4088 100.656 13.7632 100.656 12.9252C100.656 12.4722 100.508 12.0644 100.212 11.702C99.9392 11.3396 99.507 11.1584 98.9155 11.1584Z" fill="black"/>
<defs>
<linearGradient id="paint0_linear_816_501" x1="61.0067" y1="44.1887" x2="61.0067" y2="-7.97333" gradientUnits="userSpaceOnUse">
<stop offset="0.213542" stop-color="#7B61FF"/>
<stop offset="1" stop-color="#FF007A" stop-opacity="0.5"/>
</linearGradient>
</defs>
</svg>
