<svg width="28" height="24" viewBox="0 0 28 24" fill="none" xmlns="http://www.w3.org/2000/svg">
<path d="M24.8802 2.66665C23.4668 1.2496 21.5933 0.384707 19.598 0.228213C17.6027 0.0717198 15.6172 0.633941 14.0002 1.81332C12.3037 0.551503 10.1922 -0.0206651 8.09076 0.212036C5.98934 0.444738 4.05412 1.46502 2.67484 3.06743C1.29555 4.66984 0.574634 6.73535 0.657273 8.84801C0.739911 10.9607 1.61996 12.9635 3.1202 14.4533L11.4002 22.7467C12.0936 23.429 13.0274 23.8115 14.0002 23.8115C14.973 23.8115 15.9068 23.429 16.6002 22.7467L24.8802 14.4533C26.437 12.887 27.3108 10.7684 27.3108 8.55999C27.3108 6.35162 26.437 4.23296 24.8802 2.66665ZM23.0002 12.6133L14.7202 20.8933C14.626 20.9885 14.5138 21.064 14.3903 21.1155C14.2667 21.1671 14.1341 21.1936 14.0002 21.1936C13.8663 21.1936 13.7337 21.1671 13.6102 21.1155C13.4866 21.064 13.3744 20.9885 13.2802 20.8933L5.0002 12.5733C3.95455 11.5044 3.36902 10.0686 3.36902 8.57332C3.36902 7.07803 3.95455 5.64219 5.0002 4.57332C6.06575 3.5213 7.50283 2.93141 9.0002 2.93141C10.4976 2.93141 11.9347 3.5213 13.0002 4.57332C13.1242 4.69829 13.2716 4.79748 13.4341 4.86518C13.5966 4.93287 13.7709 4.96772 13.9469 4.96772C14.1229 4.96772 14.2972 4.93287 14.4596 4.86518C14.6221 4.79748 14.7696 4.69829 14.8935 4.57332C15.9591 3.5213 17.3962 2.93141 18.8935 2.93141C20.3909 2.93141 21.828 3.5213 22.8935 4.57332C23.9536 5.62819 24.5583 7.05624 24.5783 8.55157C24.5982 10.0469 24.0317 11.4906 23.0002 12.5733V12.6133Z" fill="url(#paint0_linear_812_14)"/>
<defs>
<linearGradient id="paint0_linear_812_14" x1="13.8036" y1="32.8829" x2="13.8036" y2="-5.78524" gradientUnits="userSpaceOnUse">
<stop offset="0.213542" stop-color="#7B61FF"/>
<stop offset="1" stop-color="#FF007A" stop-opacity="0.5"/>
</linearGradient>
</defs>
</svg>
