<svg width="28" height="28" viewBox="0 0 28 28" fill="none" xmlns="http://www.w3.org/2000/svg">
<path d="M13.9998 0.666656C6.63984 0.666656 0.666504 6.63999 0.666504 14C0.666504 21.36 6.63984 27.3333 13.9998 27.3333C21.3598 27.3333 27.3332 21.36 27.3332 14C27.3332 6.63999 21.3598 0.666656 13.9998 0.666656ZM13.9998 24.6667C8.11984 24.6667 3.33317 19.88 3.33317 14C3.33317 8.11999 8.11984 3.33332 13.9998 3.33332C19.8798 3.33332 24.6665 8.11999 24.6665 14C24.6665 19.88 19.8798 24.6667 13.9998 24.6667ZM20.1198 8.10666L11.3332 16.8933L7.87984 13.4533L5.99984 15.3333L11.3332 20.6667L21.9998 9.99999L20.1198 8.10666Z" fill="url(#paint0_linear_812_12)"/>
<defs>
<linearGradient id="paint0_linear_812_12" x1="13.8225" y1="37.5617" x2="13.8225" y2="-6.03824" gradientUnits="userSpaceOnUse">
<stop offset="0.213542" stop-color="#7B61FF"/>
<stop offset="1" stop-color="#FF007A" stop-opacity="0.5"/>
</linearGradient>
</defs>
</svg>
