<svg width="28" height="28" viewBox="0 0 28 28" fill="none" xmlns="http://www.w3.org/2000/svg">
<path d="M23.4265 4.57332L21.5465 6.45332C23.4665 8.38666 24.6665 11.0533 24.6665 14C24.6665 19.8933 19.8932 24.6667 13.9998 24.6667C8.1065 24.6667 3.33317 19.8933 3.33317 14C3.33317 8.55999 7.39984 4.07999 12.6665 3.42666V6.11999C8.87984 6.75999 5.99984 10.04 5.99984 14C5.99984 18.4133 9.5865 22 13.9998 22C18.4132 22 21.9998 18.4133 21.9998 14C21.9998 11.7867 21.1065 9.78666 19.6532 8.34666L17.7732 10.2267C18.7332 11.2 19.3332 12.5333 19.3332 14C19.3332 16.9467 16.9465 19.3333 13.9998 19.3333C11.0532 19.3333 8.6665 16.9467 8.6665 14C8.6665 11.52 10.3732 9.45332 12.6665 8.85332V11.7067C11.8665 12.1733 11.3332 13.0133 11.3332 14C11.3332 15.4667 12.5332 16.6667 13.9998 16.6667C15.4665 16.6667 16.6665 15.4667 16.6665 14C16.6665 13.0133 16.1332 12.16 15.3332 11.7067V0.666656H13.9998C6.63984 0.666656 0.666504 6.63999 0.666504 14C0.666504 21.36 6.63984 27.3333 13.9998 27.3333C21.3598 27.3333 27.3332 21.36 27.3332 14C27.3332 10.32 25.8398 6.98666 23.4265 4.57332Z" fill="url(#paint0_linear_812_15)"/>
<defs>
<linearGradient id="paint0_linear_812_15" x1="13.8225" y1="37.5617" x2="13.8225" y2="-6.03824" gradientUnits="userSpaceOnUse">
<stop offset="0.213542" stop-color="#7B61FF"/>
<stop offset="1" stop-color="#FF007A" stop-opacity="0.5"/>
</linearGradient>
</defs>
</svg>
