<?xml version="1.0" encoding="UTF-8" standalone="no"?>
<!DOCTYPE svg PUBLIC "-//W3C//DTD SVG 1.1//EN" "http://www.w3.org/Graphics/SVG/1.1/DTD/svg11.dtd">
<svg width="100%" height="100%" viewBox="0 0 129 32" version="1.1" xmlns="http://www.w3.org/2000/svg" xmlns:xlink="http://www.w3.org/1999/xlink" xml:space="preserve" xmlns:serif="http://www.serif.com/" style="fill-rule:evenodd;clip-rule:evenodd;stroke-linejoin:round;stroke-miterlimit:2;">
    <g id="Artboard1" transform="matrix(1.904,0,0,0.998089,-61.6586,-0.0533383)">
        <rect x="32.384" y="0.053" width="67.542" height="32.061" style="fill:none;"/>
        <g transform="matrix(0.543019,0,0,1.03391,15.2041,0.6026)">
            <g transform="matrix(0.129991,0,0,0.130239,32.3837,0.0534404)">
                <path d="M70.436,8.111C85.398,8.111 96.461,11.371 103.624,17.891C110.946,24.412 114.607,32.92 114.607,43.416C114.607,52.322 112.14,59.161 107.205,63.932C102.271,68.544 95.188,70.85 85.955,70.85C83.09,70.85 81.26,70.611 80.464,70.134C79.668,69.498 79.27,68.305 79.27,66.556C79.27,64.966 79.111,62.898 78.792,60.354C78.633,57.809 78.076,55.344 77.121,52.959C76.166,50.573 74.654,48.585 72.585,46.995C70.515,45.245 67.65,44.371 63.989,44.371C58.895,44.371 54.359,45.961 50.379,49.142C46.4,52.163 44.41,56.139 44.41,61.069C44.41,65.363 46.002,68.862 49.186,71.566C52.528,74.269 56.667,76.814 61.601,79.199C66.536,81.426 71.868,83.732 77.599,86.117C83.488,88.503 88.9,91.683 93.835,95.659C98.769,99.476 102.828,104.327 106.012,110.211C109.354,115.936 111.026,123.252 111.026,132.158C111.026,139.155 109.832,145.755 107.444,151.957C105.216,158.001 101.793,163.328 97.177,167.94C92.72,172.393 86.99,175.892 79.986,178.437C73.142,180.981 65.103,182.253 55.871,182.253C47.912,182.253 40.51,181.379 33.666,179.629C26.98,177.88 21.091,175.733 15.997,173.189C11.063,170.485 7.163,167.622 4.298,164.601C1.433,161.42 0,158.557 0,156.013C0,145.516 0.557,137.962 1.671,133.35C2.945,128.738 5.173,126.432 8.357,126.432C10.585,126.432 12.893,127.387 15.281,129.295C17.828,131.203 20.693,133.35 23.877,135.736C27.06,138.121 30.721,140.268 34.86,142.177C39.157,144.085 44.092,145.039 49.663,145.039C51.892,145.039 54.04,144.88 56.11,144.562C58.338,144.085 60.248,143.37 61.84,142.415C63.591,141.461 64.944,140.189 65.899,138.598C67.013,137.008 67.57,135.1 67.57,132.873C67.57,128.897 66.058,125.717 63.034,123.331C60.01,120.946 56.189,118.799 51.573,116.89C46.957,114.823 41.943,112.755 36.531,110.688C31.278,108.461 26.344,105.519 21.728,101.862C17.112,98.045 13.291,93.194 10.267,87.31C7.243,81.426 5.73,73.872 5.73,64.647C5.73,54.31 7.64,45.563 11.461,38.407C15.44,31.25 20.454,25.446 26.503,20.993C32.711,16.381 39.635,13.12 47.275,11.212C55.075,9.144 62.795,8.111 70.436,8.111Z" style="fill:url(#_Linear1);fill-rule:nonzero;"/>
            </g>
            <g transform="matrix(0.129991,0,0,0.130239,32.3837,0.0534404)">
                <path d="M156.156,179.868C151.221,179.868 147.162,179.391 143.979,178.437C140.954,177.323 138.487,175.813 136.577,173.904C134.826,171.996 133.553,169.69 132.757,166.986C132.12,164.124 131.802,160.863 131.802,157.206C131.802,154.82 131.881,151.48 132.041,147.186C132.359,142.733 132.837,136.69 133.473,129.056C134.11,121.264 134.826,111.483 135.622,99.715C136.577,87.787 137.691,73.076 138.965,55.583C139.124,52.084 139.522,50.016 140.159,49.38C140.636,48.903 141.91,48.664 143.979,48.664L153.291,48.664C158.225,48.664 162.205,49.142 165.229,50.096C168.412,51.05 170.88,52.481 172.631,54.39C174.541,56.298 175.814,58.604 176.451,61.308C177.247,64.011 177.645,67.033 177.645,70.373C177.645,72.758 177.486,76.337 177.167,81.108C176.849,85.879 176.371,92.399 175.735,100.669C175.257,108.78 174.541,118.958 173.586,131.203C172.631,143.29 171.437,157.921 170.004,175.097C169.845,177.005 169.447,178.278 168.81,178.914C168.174,179.55 166.821,179.868 164.751,179.868L156.156,179.868ZM139.204,20.515C139.204,14.154 141.512,9.144 146.128,5.487C150.744,1.829 156.952,0 164.751,0C171.596,0 176.53,1.431 179.555,4.294C182.738,6.998 184.33,10.655 184.33,15.267C184.33,21.152 182.102,26.082 177.645,30.058C173.347,33.874 166.98,35.783 158.544,35.783C145.65,35.783 139.204,30.694 139.204,20.515Z" style="fill:url(#_Linear2);fill-rule:nonzero;"/>
            </g>
            <g transform="matrix(0.129991,0,0,0.130239,32.3837,0.0534404)">
                <path d="M240.022,136.929C239.544,144.244 238.987,151.242 238.351,157.921C237.714,164.442 237.236,170.167 236.918,175.097C236.759,177.005 236.361,178.278 235.724,178.914C235.087,179.55 233.734,179.868 231.665,179.868L223.07,179.868C218.135,179.868 214.076,179.391 210.893,178.437C207.868,177.323 205.401,175.813 203.491,173.904C201.74,171.996 200.467,169.69 199.671,166.986C199.034,164.124 198.716,160.863 198.716,157.206C198.716,154.82 198.795,151.48 198.954,147.186C199.273,142.733 199.75,136.69 200.387,129.056C201.024,121.264 201.74,111.483 202.536,99.715C203.491,87.787 204.605,73.076 205.879,55.583C206.038,52.084 206.436,50.016 207.072,49.38C207.55,48.903 208.823,48.664 210.893,48.664L220.204,48.664C224.98,48.664 228.88,49.221 231.904,50.334C234.928,51.448 237.396,52.879 239.306,54.628C241.216,56.378 242.569,58.445 243.365,60.831C244.161,63.216 244.638,65.681 244.797,68.226C249.413,59.638 254.666,53.833 260.556,50.812C266.445,47.79 273.369,46.279 281.328,46.279C285.626,46.279 289.765,46.677 293.744,47.472C297.723,48.267 301.305,49.619 304.488,51.527C307.672,53.436 310.378,55.98 312.606,59.161C314.835,62.182 316.427,66.079 317.382,70.85C322.316,61.626 327.728,55.265 333.618,51.766C339.507,48.108 346.909,46.279 355.823,46.279C360.757,46.279 365.453,46.836 369.91,47.949C374.526,48.903 378.505,50.653 381.848,53.197C385.191,55.742 387.817,59.24 389.727,63.693C391.797,67.987 392.831,73.394 392.831,79.915C392.831,84.845 392.593,90.888 392.115,98.045C391.638,105.201 391.08,112.994 390.444,121.423C389.807,129.693 389.091,138.28 388.295,147.186C387.499,155.933 386.862,164.362 386.385,172.473C386.226,174.222 386.066,175.574 385.907,176.528C385.748,177.482 385.43,178.198 384.952,178.675C384.634,179.152 384.077,179.47 383.281,179.629C382.485,179.788 381.371,179.868 379.938,179.868L372.298,179.868C367.204,179.868 363.065,179.391 359.882,178.437C356.698,177.482 354.231,176.131 352.48,174.381C350.729,172.632 349.456,170.485 348.66,167.94C348.023,165.237 347.705,162.215 347.705,158.875C347.705,156.808 347.784,153.866 347.944,150.049C348.262,146.232 348.58,142.097 348.899,137.644C349.376,133.191 349.774,128.579 350.092,123.808C350.57,119.037 350.968,114.664 351.286,110.688C351.764,106.553 352.082,102.975 352.241,99.953C352.56,96.932 352.719,94.944 352.719,93.989C352.719,89.855 351.843,86.197 350.092,83.016C348.501,79.835 345.317,78.245 340.542,78.245C336.403,78.245 332.822,79.597 329.797,82.3C326.773,85.004 324.226,88.741 322.157,93.512C320.088,98.283 318.416,103.929 317.143,110.449C315.87,116.97 314.994,124.047 314.517,131.681C314.198,136.611 313.8,142.256 313.323,148.618C312.845,154.979 312.288,162.931 311.651,172.473C311.492,174.222 311.333,175.574 311.174,176.528C311.015,177.482 310.696,178.198 310.219,178.675C309.9,179.152 309.343,179.47 308.547,179.629C307.752,179.788 306.637,179.868 305.205,179.868L297.564,179.868C292.471,179.868 288.332,179.391 285.148,178.437C281.965,177.482 279.498,176.131 277.747,174.381C275.996,172.632 274.722,170.485 273.927,167.94C273.29,165.237 272.971,162.215 272.971,158.875C272.971,155.695 273.21,151.083 273.688,145.039C274.324,138.837 274.882,132.476 275.359,125.955C275.996,119.276 276.553,112.994 277.03,107.11C277.667,101.066 277.986,96.693 277.986,93.989C277.986,89.855 277.11,86.197 275.359,83.016C273.767,79.835 270.584,78.245 265.809,78.245C261.511,78.245 257.85,79.835 254.825,83.016C251.801,86.197 249.254,90.491 247.185,95.898C245.275,101.146 243.683,107.348 242.41,114.505C241.295,121.661 240.499,129.136 240.022,136.929Z" style="fill:url(#_Linear3);fill-rule:nonzero;"/>
            </g>
            <g transform="matrix(0.129991,0,0,0.130239,32.3837,0.0534404)">
                <path d="M496.776,46.279C511.739,46.279 522.961,50.891 530.442,60.115C538.082,69.339 541.903,83.891 541.903,103.77C541.903,116.175 540.47,127.228 537.605,136.929C534.74,146.63 530.76,154.9 525.667,161.738C520.573,168.417 514.604,173.507 507.759,177.005C500.915,180.504 493.513,182.253 485.554,182.253C477.118,182.253 470.512,180.425 465.737,176.767C460.961,173.109 457.221,167.94 454.515,161.261C454.037,166.986 453.639,171.36 453.321,174.381C453.003,177.403 452.764,179.788 452.605,181.538C452.445,183.446 452.286,185.116 452.127,186.547C452.127,187.979 451.968,189.887 451.65,192.273C451.49,194.658 451.252,197.918 450.933,202.053C450.615,206.188 450.137,211.913 449.501,219.229C449.341,221.137 448.944,222.41 448.307,223.046C447.67,223.682 446.317,224 444.248,224L435.652,224C430.718,224 426.659,223.443 423.475,222.33C420.451,221.376 417.984,219.945 416.074,218.036C414.323,216.128 413.049,213.742 412.253,210.88C411.617,208.176 411.298,204.995 411.298,201.338C411.298,199.747 411.537,195.453 412.015,188.456C412.492,181.458 413.049,173.109 413.686,163.408C414.482,153.548 415.278,142.972 416.074,131.681C417.029,120.389 417.904,109.654 418.7,99.476C419.496,89.139 420.133,79.994 420.61,72.043C421.247,64.091 421.724,58.604 422.043,55.583C422.202,52.084 422.6,50.016 423.237,49.38C423.714,48.903 424.987,48.664 427.057,48.664L436.369,48.664C444.964,48.664 451.172,50.493 454.992,54.151C458.972,57.65 460.961,61.864 460.961,66.795C464.622,59.479 469.318,54.231 475.048,51.05C480.938,47.869 488.181,46.279 496.776,46.279ZM479.346,78.006C471.228,78.006 465.259,81.505 461.439,88.503C457.619,95.5 455.709,105.042 455.709,117.129C455.709,121.264 455.947,125.319 456.425,129.295C457.062,133.271 458.096,136.849 459.529,140.03C460.961,143.211 462.872,145.755 465.259,147.663C467.806,149.572 470.99,150.526 474.81,150.526C481.654,150.526 487.385,147.186 492.001,140.507C496.617,133.827 498.925,123.331 498.925,109.018C498.925,105.042 498.607,101.225 497.97,97.568C497.492,93.751 496.537,90.411 495.105,87.549C493.672,84.686 491.682,82.38 489.136,80.631C486.589,78.881 483.326,78.006 479.346,78.006Z" style="fill:url(#_Linear4);fill-rule:nonzero;"/>
            </g>
            <g transform="matrix(0.129991,0,0,0.130239,32.3837,0.0534404)">
                <path d="M588.057,182.015C578.188,182.015 571.105,179.391 566.807,174.143C562.509,168.895 560.36,160.227 560.36,148.141C560.36,146.232 560.44,143.847 560.599,140.984C560.917,138.121 561.236,134.464 561.554,130.011C562.032,125.399 562.589,119.753 563.225,113.073C563.862,106.394 564.499,98.283 565.136,88.741C565.931,79.199 566.727,67.987 567.523,55.105C568.478,42.224 569.433,27.274 570.388,10.258C570.548,6.759 570.945,4.692 571.582,4.055C572.06,3.578 573.333,3.34 575.402,3.34L584.714,3.34C589.49,3.34 593.469,3.896 596.652,5.01C599.836,6.123 602.383,7.634 604.293,9.542C606.203,11.451 607.556,13.677 608.352,16.221C609.148,18.607 609.546,21.152 609.546,23.855C609.546,27.036 609.307,31.648 608.83,37.691C608.511,43.575 608.034,50.255 607.397,57.73C606.76,65.204 606.124,72.997 605.487,81.108C604.85,89.218 604.213,97.011 603.577,104.486C602.94,111.801 602.383,118.401 601.905,124.285C601.587,130.17 601.428,134.623 601.428,137.644C601.428,141.779 602.144,144.721 603.577,146.471C605.168,148.22 606.84,149.492 608.591,150.288C610.342,150.924 611.933,151.401 613.366,151.719C614.958,151.878 615.754,152.355 615.754,153.15C615.754,156.649 615.356,160.148 614.56,163.646C613.764,166.986 612.331,170.087 610.262,172.95C608.193,175.654 605.328,177.88 601.667,179.629C598.165,181.22 593.628,182.015 588.057,182.015Z" style="fill:url(#_Linear5);fill-rule:nonzero;"/>
            </g>
            <g transform="matrix(0.129991,0,0,0.130239,32.3837,0.0534404)">
                <path d="M687.564,182.253C680.56,182.253 673.557,181.379 666.553,179.629C659.708,177.88 653.5,174.858 647.929,170.564C642.517,166.271 638.06,160.545 634.558,153.389C631.056,146.232 629.305,137.247 629.305,126.432C629.305,122.457 629.624,117.685 630.26,112.119C630.897,106.553 632.091,100.828 633.842,94.944C635.752,89.059 638.299,83.254 641.482,77.529C644.825,71.645 649.123,66.397 654.376,61.785C659.629,57.173 665.996,53.436 673.477,50.573C680.958,47.71 689.872,46.279 700.219,46.279C708.496,46.279 715.5,47.233 721.23,49.142C726.96,51.05 731.576,53.674 735.078,57.014C738.58,60.195 741.127,63.932 742.719,68.226C744.31,72.52 745.106,77.132 745.106,82.062C745.106,89.377 743.594,95.58 740.57,100.669C737.705,105.758 733.884,110.052 729.109,113.551C724.493,116.89 719.32,119.514 713.589,121.423C707.859,123.331 702.208,124.842 696.637,125.955C691.066,126.909 685.893,127.546 681.117,127.864C676.501,128.023 672.92,128.102 670.373,128.102C670.373,131.124 670.771,134.146 671.567,137.167C672.522,140.03 673.875,142.574 675.626,144.801C677.377,147.027 679.685,148.856 682.55,150.288C685.415,151.719 688.917,152.435 693.056,152.435C697.194,152.435 700.378,151.798 702.606,150.526C704.994,149.095 706.904,147.584 708.337,145.994C709.769,144.244 710.963,142.733 711.918,141.461C713.032,140.03 714.465,139.314 716.216,139.314C717.012,139.314 718.365,139.553 720.275,140.03C722.344,140.348 724.413,141.143 726.483,142.415C728.552,143.688 730.382,145.437 731.974,147.663C733.566,149.89 734.362,152.753 734.362,156.251C734.362,160.863 732.929,164.839 730.064,168.179C727.199,171.519 723.458,174.222 718.842,176.29C714.385,178.357 709.371,179.868 703.8,180.822C698.229,181.776 692.817,182.253 687.564,182.253ZM692.101,78.006C688.599,78.006 685.574,79.04 683.028,81.108C680.64,83.016 678.571,85.481 676.82,88.503C675.228,91.524 673.954,94.864 672.999,98.522C672.203,102.18 671.567,105.678 671.089,109.018C680.958,108.859 688.917,107.189 694.966,104.009C701.174,100.828 704.278,96.295 704.278,90.411C704.278,87.23 703.243,84.368 701.174,81.823C699.264,79.279 696.239,78.006 692.101,78.006Z" style="fill:url(#_Linear6);fill-rule:nonzero;"/>
            </g>
            <g transform="matrix(0.129991,0,0,0.130239,32.3837,0.0534404)">
                <path d="M887.188,44.848C881.139,44.848 876.125,46.359 872.146,49.38C868.326,52.402 865.222,56.139 862.834,60.592C860.606,64.886 859.014,69.498 858.059,74.428C857.104,79.199 856.626,83.414 856.626,87.071C856.626,89.298 856.945,90.809 857.581,91.604C858.059,91.127 859.094,89.775 860.685,87.549C862.277,85.322 864.585,83.016 867.609,80.631C870.634,78.086 874.374,75.859 878.831,73.951C883.448,72.043 889.019,71.088 895.545,71.088C900.957,71.088 906.21,71.884 911.303,73.474C916.556,74.905 921.172,77.45 925.152,81.108C929.29,84.606 932.633,89.298 935.18,95.182C937.727,100.907 939,108.064 939,116.652C939,125.717 937.488,134.225 934.464,142.177C931.439,150.129 926.903,157.126 920.854,163.169C914.964,169.054 907.563,173.745 898.649,177.244C889.735,180.584 879.468,182.253 867.848,182.253C856.069,182.253 846.519,180.345 839.196,176.528C831.874,172.711 826.144,167.622 822.005,161.261C817.867,154.74 815.002,147.186 813.41,138.598C811.977,129.852 811.261,120.628 811.261,110.927C811.261,97.25 812.614,84.209 815.32,71.804C818.026,59.24 822.403,48.267 828.452,38.884C834.66,29.342 842.778,21.788 852.806,16.221C862.834,10.655 875.17,7.872 889.815,7.872C906.687,7.872 918.944,10.576 926.584,15.983C934.225,21.39 938.045,28.229 938.045,36.498C938.045,43.973 935.498,49.539 930.405,53.197C925.47,56.855 918.307,58.684 908.916,58.684C907.642,58.684 906.608,58.525 905.812,58.207C905.175,57.889 904.857,57.093 904.857,55.821C904.857,52.799 903.663,50.255 901.275,48.187C898.888,45.961 894.192,44.848 887.188,44.848ZM878.593,99.715C874.454,99.715 870.952,100.669 868.087,102.577C865.222,104.486 862.914,106.871 861.163,109.734C859.571,112.437 858.377,115.459 857.581,118.799C856.945,121.979 856.626,124.842 856.626,127.387C856.626,132.794 857.82,137.088 860.208,140.268C862.755,143.449 866.336,145.039 870.952,145.039C875.409,145.039 879.15,144.006 882.174,141.938C885.198,139.871 887.586,137.326 889.337,134.305C891.247,131.124 892.6,127.864 893.396,124.524C894.192,121.184 894.59,118.163 894.59,115.459C894.59,110.847 893.396,107.11 891.008,104.247C888.621,101.225 884.482,99.715 878.593,99.715Z" style="fill:url(#_Linear7);fill-rule:nonzero;"/>
            </g>
        </g>
    </g>
    <defs>
        <linearGradient id="_Linear1" x1="0" y1="0" x2="1" y2="0" gradientUnits="userSpaceOnUse" gradientTransform="matrix(2.24257e-14,-366.239,366.239,2.24257e-14,463.257,309.918)"><stop offset="0" style="stop-color:rgb(123,97,255);stop-opacity:0.85"/><stop offset="0.21" style="stop-color:rgb(123,97,255);stop-opacity:0.85"/><stop offset="1" style="stop-color:rgb(255,0,122);stop-opacity:0.42"/></linearGradient>
        <linearGradient id="_Linear2" x1="0" y1="0" x2="1" y2="0" gradientUnits="userSpaceOnUse" gradientTransform="matrix(2.24257e-14,-366.239,366.239,2.24257e-14,463.257,309.918)"><stop offset="0" style="stop-color:rgb(123,97,255);stop-opacity:0.85"/><stop offset="0.21" style="stop-color:rgb(123,97,255);stop-opacity:0.85"/><stop offset="1" style="stop-color:rgb(255,0,122);stop-opacity:0.42"/></linearGradient>
        <linearGradient id="_Linear3" x1="0" y1="0" x2="1" y2="0" gradientUnits="userSpaceOnUse" gradientTransform="matrix(2.24257e-14,-366.239,366.239,2.24257e-14,463.257,309.918)"><stop offset="0" style="stop-color:rgb(123,97,255);stop-opacity:0.85"/><stop offset="0.21" style="stop-color:rgb(123,97,255);stop-opacity:0.85"/><stop offset="1" style="stop-color:rgb(255,0,122);stop-opacity:0.42"/></linearGradient>
        <linearGradient id="_Linear4" x1="0" y1="0" x2="1" y2="0" gradientUnits="userSpaceOnUse" gradientTransform="matrix(2.24257e-14,-366.239,366.239,2.24257e-14,463.257,309.918)"><stop offset="0" style="stop-color:rgb(123,97,255);stop-opacity:0.85"/><stop offset="0.21" style="stop-color:rgb(123,97,255);stop-opacity:0.85"/><stop offset="1" style="stop-color:rgb(255,0,122);stop-opacity:0.42"/></linearGradient>
        <linearGradient id="_Linear5" x1="0" y1="0" x2="1" y2="0" gradientUnits="userSpaceOnUse" gradientTransform="matrix(2.24257e-14,-366.239,366.239,2.24257e-14,463.257,309.918)"><stop offset="0" style="stop-color:rgb(123,97,255);stop-opacity:0.85"/><stop offset="0.21" style="stop-color:rgb(123,97,255);stop-opacity:0.85"/><stop offset="1" style="stop-color:rgb(255,0,122);stop-opacity:0.42"/></linearGradient>
        <linearGradient id="_Linear6" x1="0" y1="0" x2="1" y2="0" gradientUnits="userSpaceOnUse" gradientTransform="matrix(2.24257e-14,-366.239,366.239,2.24257e-14,463.257,309.918)"><stop offset="0" style="stop-color:rgb(123,97,255);stop-opacity:0.85"/><stop offset="0.21" style="stop-color:rgb(123,97,255);stop-opacity:0.85"/><stop offset="1" style="stop-color:rgb(255,0,122);stop-opacity:0.42"/></linearGradient>
        <linearGradient id="_Linear7" x1="0" y1="0" x2="1" y2="0" gradientUnits="userSpaceOnUse" gradientTransform="matrix(2.24257e-14,-366.239,366.239,2.24257e-14,463.257,309.918)"><stop offset="0" style="stop-color:rgb(123,97,255);stop-opacity:0.85"/><stop offset="0.21" style="stop-color:rgb(123,97,255);stop-opacity:0.85"/><stop offset="1" style="stop-color:rgb(255,0,122);stop-opacity:0.42"/></linearGradient>
    </defs>
</svg>
